<?xml version="1.0" encoding="utf-8"?>
<!-- Generator: Adobe Illustrator 15.1.0, SVG Export Plug-In . SVG Version: 6.00 Build 0)  -->
<!DOCTYPE svg PUBLIC "-//W3C//DTD SVG 1.1//EN" "http://www.w3.org/Graphics/SVG/1.1/DTD/svg11.dtd">
<svg version="1.1" id="Layer_1" xmlns="http://www.w3.org/2000/svg" xmlns:xlink="http://www.w3.org/1999/xlink" x="0px" y="0px"
	 width="128px" height="128px" viewBox="0 0 128 128" enable-background="new 0 0 128 128" xml:space="preserve">
<g>
	<circle fill="#C2D5D8" cx="64" cy="64" r="64"/>
	<g>
		<g>
			<g>
				<defs>
					<circle id="SVGID_1_" cx="64" cy="64" r="64"/>
				</defs>
				<clipPath id="SVGID_2_">
					<use xlink:href="#SVGID_1_"  overflow="visible"/>
				</clipPath>
				<g clip-path="url(#SVGID_2_)">
					<path fill="#D9B455" d="M42.998,18.396c-0.012-0.009-0.023-0.031-0.036-0.043c-0.521,0.05-1.032,0.131-1.545,0.209
						C41.943,18.502,42.467,18.444,42.998,18.396z"/>
					<g>
						<polygon fill="#F5F5F5" points="60.678,171.419 57.833,170.878 64.568,135.311 59.918,112.053 62.757,111.482 67.52,135.296 
													"/>
						<polygon fill="#F5F5F5" points="64.996,171.534 62.205,170.762 73.145,131.271 58.744,112.654 61.034,110.882 76.324,130.646 
													"/>
						<ellipse fill="#F5F5F5" cx="66.044" cy="135.167" rx="2.534" ry="2.036"/>
						<ellipse fill="#F5F5F5" cx="74.6" cy="131.094" rx="2.533" ry="2.037"/>
					</g>
					<path fill="#D9B455" d="M42.934,40.212c-0.011,0.035-0.017,0.077-0.024,0.113c0.019-0.024,0.036-0.05,0.054-0.078
						c0.012-0.015,0.021-0.035,0.031-0.054C42.975,40.197,42.955,40.205,42.934,40.212z"/>
					<path fill="#EE8E88" d="M75.542,69.043c-6.263,0.016-11.584,3.742-16.278,7.03c-4.32,3.024-8.092,5.805-10.977,4.257
						c-0.414-0.221-1.094-0.669-1.254-1.104C45.258,74.458,57.564,58.301,57.044,38.6l-8.288,0.028
						c0,16.052-25.788,34.035-25.788,49.362c0,2.955,0.691,5.716,2.369,8.195c6.338,11.063,14.823,12.477,21.778,12.656
						c3.099,2.981,10.766,5.098,19.757,5.098c8.963,0,16.61-2.104,19.726-5.069h14.297c2.002,0,3.621-1.619,3.621-3.62
						C104.516,87.316,89.907,69.043,75.542,69.043z"/>
					<g>
						<path fill="#D9817C" d="M42.688,79.227c0.162,0.437,0.84,0.885,1.256,1.104c1.242,0.668,2.652,0.526,4.197-0.087
							c-0.412-0.236-0.964-0.627-1.106-1.018C45.26,74.458,57.565,58.301,57.046,38.6L52.7,38.616
							C53.214,58.31,40.913,74.46,42.688,79.227z"/>
						<path fill="#D9817C" d="M64.7,113.895c0.715,0.027,1.437,0.049,2.172,0.049c8.963,0,16.61-2.104,19.726-5.07h-4.345
							C79.393,111.596,72.709,113.587,64.7,113.895z"/>
						<path fill="#D9817C" d="M75.542,69.043c-0.726,0.002-1.438,0.059-2.14,0.152c13.615,1.729,26.768,19.039,26.768,36.056
							c0,2.001-1.619,3.62-3.621,3.62h4.346c2.002,0,3.621-1.619,3.621-3.62C104.516,87.316,89.907,69.043,75.542,69.043z"/>
					</g>
					<path fill="#EE8E88" d="M37.439,21.067C37.802,17.988,43.641,15,46.583,15c1.991,0,7.241,0,7.241,0
						c10.826,0,17.019,5.686,17.019,14.35c0,7.968-8.608,10.591-13.795,10.768L44.17,40.179L37.439,21.067z"/>
					<path fill="#D9817C" d="M53.824,14.732c0,0-2.237,0-4.346,0c10.828,0,17.02,5.818,17.02,14.482
						c0,7.966-8.607,10.657-13.795,10.834l-8.536,0.019l0.003,0.011l12.878-0.028c5.187-0.177,13.795-2.868,13.795-10.834
						C70.843,20.552,64.65,14.732,53.824,14.732z"/>
					<path fill="#F5F5F5" d="M37.439,20.933c-1.697,0-10.139,6.201-12.672,7.739c-2.535,1.539-2.625,8.237-2.716,13.035
						c-0.091,4.797,0.181,11.133,1.991,11.133s4.421-8.508,5.695-9.595c1.273-1.086,13.104-3.167,14.431-3.167
						s4.313-5.432,3.229-9.324C46.313,26.861,41.967,20.933,37.439,20.933z"/>
					<path fill="#242424" d="M31.619,32.536c-2.148,0.842-4.926,0.648-8.586-1.125c-0.856,2.801-0.92,6.998-0.98,10.296
						c-0.091,4.797,0.182,11.133,1.991,11.133c1.61,0,3.853-6.721,5.226-8.972C28.188,39.805,29.35,37.325,31.619,32.536z"/>
					<circle fill="#F5F5F5" cx="46.825" cy="21.914" r="2.896"/>
					<circle fill="#242424" cx="46.824" cy="21.914" r="1.448"/>
				</g>
			</g>
		</g>
	</g>
</g>
</svg>
